# xmcd
#
# Track frame offsets:
#	150
#	15985
#	32407
#	44655
#	66850
#	81422
#	100512
#	118145
#	135507
#	150857
#	165917
#	186232
#	201045
#	217077
#	237660
#	259422
#
# Disc length: 3647 seconds
#
# Revision: 3
# Processed by: cddbd v1.5.2PL0 Copyright (c) Steve Scherf et al.
# Submitted via: audiograbber 1.83.01
#
DISCID=d60e3d10
DTITLE=Bennett, Tony - Playin' With My Friends 2001
DYEAR=2001
DGENRE=Jazz
TTITLE0=Alright, Okay, You Win (w - Diana Krall)
TTITLE1=Everyday (I Have The Blues) w - Stevie Wonder
TTITLE2=Don't Cry Baby
TTITLE3=Good Morning, Heartache (w - Sheryl Crow)
TTITLE4=Let The Good Times Roll (w - B.B. King)
TTITLE5=Evenin' (w - Ray Charles)
TTITLE6=I Gotta Right To Sing The Blues (w - Bonnie Raitt)
TTITLE7=Keep The Faith, Baby (w - k.d. lang)
TTITLE8=Old Count Basie Is Gone
TTITLE9=Blue And Sentimental (w - Kay Starr)
TTITLE10=New York State Of Mind (w - Billy Joel)
TTITLE11=Undecided Blues
TTITLE12=Blues In The Night
TTITLE13=Stormy Weather (w - Natalie Cole)
TTITLE14=Playin' With My Friends
TTITLE15=I Left My Heart In San Francisco (w - Judy Garland)
EXTD=
EXTT0=
EXTT1=
EXTT2=
EXTT3=
EXTT4=
EXTT5=
EXTT6=
EXTT7=
EXTT8=
EXTT9=
EXTT10=
EXTT11=
EXTT12=
EXTT13=
EXTT14=
EXTT15=
PLAYORDER=
